<?xml version="1.0" encoding="UTF-8" ?>
<svg version="1.1" width="160" height="160" xmlns="http://www.w3.org/2000/svg" shape-rendering="crispEdges">
<rect x="25" y="5" width="55" height="5" fill="#000000" />
<rect x="25" y="10" width="5" height="10" fill="#000000" />
<rect x="30" y="10" width="45" height="5" fill="#B39DDB" />
<rect x="75" y="10" width="10" height="5" fill="#000000" />
<rect x="20" y="15" width="5" height="80" fill="#000000" />
<rect x="30" y="15" width="45" height="5" fill="#9575CD" />
<rect x="75" y="15" width="5" height="5" fill="#B39DDB" />
<rect x="80" y="15" width="10" height="5" fill="#000000" />
<rect x="25" y="20" width="5" height="5" fill="#B39DDB" />
<rect x="30" y="20" width="20" height="60" fill="#9575CD" />
<rect x="50" y="20" width="10" height="5" fill="#7E57C2" />
<rect x="60" y="20" width="20" height="40" fill="#9575CD" />
<rect x="80" y="20" width="5" height="5" fill="#B39DDB" />
<rect x="85" y="20" width="5" height="45" fill="#000000" />
<rect x="25" y="25" width="5" height="55" fill="#9575CD" />
<rect x="50" y="25" width="10" height="5" fill="#673AB7" />
<rect x="80" y="25" width="5" height="35" fill="#9575CD" />
<rect x="50" y="30" width="10" height="20" fill="#000000" />
<rect x="50" y="50" width="10" height="5" fill="#B39DDB" />
<rect x="50" y="55" width="5" height="5" fill="#673AB7" />
<rect x="55" y="55" width="5" height="5" fill="#7E57C2" />
<rect x="50" y="60" width="5" height="35" fill="#000000" />
<rect x="55" y="60" width="5" height="5" fill="#673AB7" />
<rect x="60" y="60" width="15" height="10" fill="#9575CD" />
<rect x="75" y="60" width="10" height="5" fill="#000000" />
<rect x="90" y="60" width="55" height="5" fill="#000000" />
<rect x="55" y="65" width="5" height="30" fill="#000000" />
<rect x="75" y="65" width="5" height="10" fill="#000000" />
<rect x="80" y="65" width="60" height="5" fill="#FF8A65" />
<rect x="140" y="65" width="5" height="10" fill="#000000" />
<rect x="60" y="70" width="10" height="10" fill="#9575CD" />
<rect x="70" y="70" width="5" height="70" fill="#000000" />
<rect x="80" y="70" width="55" height="5" fill="#F4511E" />
<rect x="135" y="70" width="5" height="65" fill="#000000" />
<rect x="75" y="75" width="5" height="5" fill="#FF8A65" />
<rect x="80" y="75" width="20" height="55" fill="#F4511E" />
<rect x="100" y="75" width="35" height="5" fill="#D84315" />
<rect x="25" y="80" width="25" height="5" fill="#7E57C2" />
<rect x="60" y="80" width="10" height="5" fill="#7E57C2" />
<rect x="75" y="80" width="5" height="45" fill="#F4511E" />
<rect x="100" y="80" width="35" height="5" fill="#BF360C" />
<rect x="25" y="85" width="25" height="5" fill="#673AB7" />
<rect x="60" y="85" width="10" height="5" fill="#673AB7" />
<rect x="100" y="85" width="35" height="5" fill="#000000" />
<rect x="25" y="90" width="25" height="5" fill="#000000" />
<rect x="60" y="90" width="10" height="5" fill="#000000" />
<rect x="100" y="90" width="35" height="5" fill="#FF8A65" />
<rect x="100" y="95" width="5" height="25" fill="#000000" />
<rect x="105" y="95" width="30" height="5" fill="#F4511E" />
<rect x="105" y="100" width="5" height="5" fill="#D84315" />
<rect x="110" y="100" width="25" height="20" fill="#F4511E" />
<rect x="105" y="105" width="5" height="5" fill="#BF360C" />
<rect x="105" y="110" width="5" height="10" fill="#000000" />
<rect x="100" y="120" width="10" height="5" fill="#FF8A65" />
<rect x="110" y="120" width="20" height="10" fill="#F4511E" />
<rect x="130" y="120" width="5" height="5" fill="#D84315" />
<rect x="75" y="125" width="5" height="5" fill="#D84315" />
<rect x="100" y="125" width="10" height="10" fill="#F4511E" />
<rect x="130" y="125" width="5" height="5" fill="#BF360C" />
<rect x="75" y="130" width="5" height="5" fill="#BF360C" />
<rect x="80" y="130" width="5" height="5" fill="#D84315" />
<rect x="85" y="130" width="15" height="5" fill="#F4511E" />
<rect x="110" y="130" width="15" height="5" fill="#F4511E" />
<rect x="125" y="130" width="5" height="5" fill="#D84315" />
<rect x="130" y="130" width="5" height="15" fill="#000000" />
<rect x="75" y="135" width="5" height="10" fill="#000000" />
<rect x="80" y="135" width="5" height="5" fill="#BF360C" />
<rect x="85" y="135" width="40" height="5" fill="#D84315" />
<rect x="125" y="135" width="5" height="5" fill="#BF360C" />
<rect x="80" y="140" width="5" height="10" fill="#000000" />
<rect x="85" y="140" width="40" height="5" fill="#BF360C" />
<rect x="125" y="140" width="5" height="10" fill="#000000" />
<rect x="85" y="145" width="40" height="5" fill="#000000" />
</svg>